<svg id="visual" viewBox="0 0 1920 1080" width="1920" height="1080" xmlns="http://www.w3.org/2000/svg" xmlns:xlink="http://www.w3.org/1999/xlink" version="1.1"><path d="M0 66L175 66L175 185L349 185L349 98L524 98L524 66L698 66L698 77L873 77L873 87L1047 87L1047 174L1222 174L1222 120L1396 120L1396 98L1571 98L1571 77L1745 77L1745 66L1920 66L1920 131L1920 0L1920 0L1745 0L1745 0L1571 0L1571 0L1396 0L1396 0L1222 0L1222 0L1047 0L1047 0L873 0L873 0L698 0L698 0L524 0L524 0L349 0L349 0L175 0L175 0L0 0Z" fill="#fa7268"></path><path d="M0 163L175 163L175 336L349 336L349 271L524 271L524 217L698 217L698 206L873 206L873 163L1047 163L1047 260L1222 260L1222 217L1396 217L1396 228L1571 228L1571 260L1745 260L1745 239L1920 239L1920 206L1920 129L1920 64L1745 64L1745 75L1571 75L1571 96L1396 96L1396 118L1222 118L1222 172L1047 172L1047 85L873 85L873 75L698 75L698 64L524 64L524 96L349 96L349 183L175 183L175 64L0 64Z" fill="#ea5e66"></path><path d="M0 422L175 422L175 487L349 487L349 368L524 368L524 465L698 465L698 509L873 509L873 293L1047 293L1047 444L1222 444L1222 347L1396 347L1396 422L1571 422L1571 444L1745 444L1745 411L1920 411L1920 325L1920 204L1920 237L1745 237L1745 258L1571 258L1571 226L1396 226L1396 215L1222 215L1222 258L1047 258L1047 161L873 161L873 204L698 204L698 215L524 215L524 269L349 269L349 334L175 334L175 161L0 161Z" fill="#d84a64"></path><path d="M0 919L175 919L175 919L349 919L349 584L524 584L524 746L698 746L698 876L873 876L873 509L1047 509L1047 919L1222 919L1222 573L1396 573L1396 919L1571 919L1571 854L1745 854L1745 897L1920 897L1920 649L1920 323L1920 409L1745 409L1745 442L1571 442L1571 420L1396 420L1396 345L1222 345L1222 442L1047 442L1047 291L873 291L873 507L698 507L698 463L524 463L524 366L349 366L349 485L175 485L175 420L0 420Z" fill="#c53762"></path><path d="M0 1081L175 1081L175 1081L349 1081L349 1081L524 1081L524 1081L698 1081L698 1081L873 1081L873 1081L1047 1081L1047 1081L1222 1081L1222 1081L1396 1081L1396 1081L1571 1081L1571 1081L1745 1081L1745 1081L1920 1081L1920 1081L1920 647L1920 895L1745 895L1745 852L1571 852L1571 917L1396 917L1396 571L1222 571L1222 917L1047 917L1047 507L873 507L873 874L698 874L698 744L524 744L524 582L349 582L349 917L175 917L175 917L0 917Z" fill="#b0235f"></path></svg>