<svg xmlns="http://www.w3.org/2000/svg" xmlns:xlink="http://www.w3.org/1999/xlink" width="500" zoomAndPan="magnify" viewBox="0 0 375 374.999991" height="500" preserveAspectRatio="xMidYMid meet" version="1.0"><defs><clipPath id="a5549350d3"><path d="M 12.433594 2.355469 L 362.683594 2.355469 L 362.683594 375 L 12.433594 375 Z M 12.433594 2.355469 " clip-rule="nonzero"/></clipPath></defs><g clip-path="url(#a5549350d3)"><path fill="#ff385c" d="M 91.039062 47.726562 L 42.808594 75.578125 C 107.121094 112.703125 171.414062 149.832031 235.722656 186.957031 L 235.722656 374.988281 L 283.953125 374.988281 C 283.953125 303.019531 283.953125 231.066406 283.953125 159.097656 Z M 362.535156 113.738281 L 169.617188 2.355469 L 121.390625 30.207031 C 185.699219 67.332031 249.996094 104.460938 314.304688 141.585938 L 314.304688 374.988281 L 362.535156 374.988281 C 362.535156 287.90625 362.535156 200.820312 362.535156 113.738281 Z M 12.457031 374.988281 C 76.765625 374.988281 141.0625 374.988281 205.371094 374.988281 C 205.371094 318.148438 205.371094 261.308594 205.371094 204.46875 L 157.144531 176.632812 C 157.144531 226.683594 157.144531 276.722656 157.144531 326.773438 L 133.035156 326.773438 C 133.035156 272.082031 133.035156 217.40625 133.035156 162.714844 L 84.808594 134.851562 C 84.808594 198.820312 84.808594 262.792969 84.808594 326.761719 L 60.6875 326.761719 C 60.6875 258.152344 60.6875 189.542969 60.6875 120.933594 L 12.457031 93.085938 C 12.457031 187.054688 12.457031 281.023438 12.457031 374.988281 Z M 12.457031 374.988281 " fill-opacity="1" fill-rule="evenodd"/></g></svg>