<svg xmlns="http://www.w3.org/2000/svg" xmlns:xlink="http://www.w3.org/1999/xlink" width="800" zoomAndPan="magnify" viewBox="0 0 600 137.249994" height="183" preserveAspectRatio="xMidYMid meet" version="1.0"><defs><g/><clipPath id="438a9116d5"><path d="M 51 21.214844 L 139 21.214844 L 139 62 L 51 62 Z M 51 21.214844 " clip-rule="nonzero"/></clipPath><clipPath id="8e091e8cf5"><path d="M 1.628906 99 L 174.683594 99 L 174.683594 115.199219 L 1.628906 115.199219 Z M 1.628906 99 " clip-rule="nonzero"/></clipPath></defs><path fill="#fde962" d="M 149.320312 111.742188 L 91.578125 102.820312 L 98.257812 59.589844 L 130.660156 45.5 L 156 68.507812 L 149.320312 111.742188 " fill-opacity="1" fill-rule="nonzero"/><path fill="#fde962" d="M 162.414062 65.382812 L 132.609375 36.683594 L 93.160156 54.433594 C 93.160156 54.433594 90.078125 55.816406 90.75 58.035156 C 91.742188 61.34375 94.652344 59.523438 94.652344 59.523438 L 131.179688 42.894531 L 159.460938 69.539062 C 159.460938 69.539062 161.460938 71.875 163.398438 69.339844 C 164.925781 67.335938 162.414062 65.382812 162.414062 65.382812 " fill-opacity="1" fill-rule="nonzero"/><path fill="#f2c94c" d="M 132.109375 95.589844 L 111.882812 92.464844 L 115.828125 66.933594 L 136.054688 70.058594 L 132.109375 95.589844 " fill-opacity="1" fill-rule="nonzero"/><path fill="#fde962" d="M 130.835938 93.933594 L 113.597656 91.273438 L 117.101562 68.585938 L 134.339844 71.25 L 130.835938 93.933594 " fill-opacity="1" fill-rule="nonzero"/><path fill="#f2c94c" d="M 122.949219 93.070312 L 121.378906 92.828125 L 124.992188 69.453125 L 126.5625 69.695312 L 122.949219 93.070312 " fill-opacity="1" fill-rule="nonzero"/><path fill="#f2c94c" d="M 114.375 80.582031 L 114.617188 79.011719 L 133.5625 81.941406 L 133.320312 83.511719 L 114.375 80.582031 " fill-opacity="1" fill-rule="nonzero"/><path fill="#f2e8d5" d="M 120.804688 110.464844 L 52.128906 99.855469 L 60.074219 48.4375 L 98.613281 31.679688 L 128.75 59.050781 L 120.804688 110.464844 " fill-opacity="1" fill-rule="nonzero"/><g clip-path="url(#438a9116d5)"><path fill="#f2e8d5" d="M 136.378906 55.328125 L 100.929688 21.195312 L 54.011719 42.304688 C 54.011719 42.304688 50.347656 43.949219 51.140625 46.589844 C 52.324219 50.523438 55.78125 48.359375 55.78125 48.359375 L 99.230469 28.578125 L 132.867188 60.269531 C 132.867188 60.269531 135.242188 63.050781 137.542969 60.035156 C 139.367188 57.648438 136.378906 55.328125 136.378906 55.328125 " fill-opacity="1" fill-rule="nonzero"/></g><path fill="#f2c94c" d="M 100.335938 91.253906 L 76.277344 87.539062 L 80.96875 57.171875 L 105.027344 60.890625 L 100.335938 91.253906 " fill-opacity="1" fill-rule="nonzero"/><path fill="#f2e8d5" d="M 98.820312 89.289062 L 78.316406 86.121094 L 82.484375 59.136719 L 102.988281 62.308594 L 98.820312 89.289062 " fill-opacity="1" fill-rule="nonzero"/><path fill="#f2c94c" d="M 89.4375 88.257812 L 87.570312 87.96875 L 91.867188 60.171875 L 93.734375 60.457031 L 89.4375 88.257812 " fill-opacity="1" fill-rule="nonzero"/><path fill="#f2c94c" d="M 79.242188 73.40625 L 79.53125 71.539062 L 102.066406 75.019531 L 101.777344 76.886719 L 79.242188 73.40625 " fill-opacity="1" fill-rule="nonzero"/><path fill="#4a90e2" d="M 97.636719 108.191406 L 28.144531 108.191406 L 28.144531 56.160156 L 63.671875 33.71875 L 97.636719 56.160156 L 97.636719 108.191406 " fill-opacity="1" fill-rule="nonzero"/><path fill="#4a90e2" d="M 104.605469 51.320312 L 64.359375 23 L 21.214844 51.027344 C 21.214844 51.027344 17.84375 53.214844 19.03125 55.699219 C 20.804688 59.410156 23.886719 56.742188 23.886719 56.742188 L 63.808594 30.558594 L 101.890625 56.742188 C 101.890625 56.742188 104.660156 59.125 106.476562 55.792969 C 107.910156 53.160156 104.605469 51.320312 104.605469 51.320312 " fill-opacity="1" fill-rule="nonzero"/><path fill="#f2c94c" d="M 74.46875 92.332031 L 50.128906 92.332031 L 50.128906 61.605469 L 74.46875 61.605469 L 74.46875 92.332031 " fill-opacity="1" fill-rule="nonzero"/><path fill="#4a90e2" d="M 72.671875 90.617188 L 51.925781 90.617188 L 51.925781 63.316406 L 72.671875 63.316406 L 72.671875 90.617188 " fill-opacity="1" fill-rule="nonzero"/><path fill="#f2c94c" d="M 63.242188 91.03125 L 61.355469 91.03125 L 61.355469 62.902344 L 63.242188 62.902344 L 63.242188 91.03125 " fill-opacity="1" fill-rule="nonzero"/><path fill="#f2c94c" d="M 50.898438 77.914062 L 50.898438 76.023438 L 73.699219 76.023438 L 73.699219 77.914062 L 50.898438 77.914062 " fill-opacity="1" fill-rule="nonzero"/><g clip-path="url(#8e091e8cf5)"><path fill="#8d6e63" d="M 1.734375 115.253906 C 1.734375 115.253906 76.898438 79.566406 174.492188 115.253906 C 174.492188 115.253906 111.007812 107.042969 1.734375 115.253906 " fill-opacity="1" fill-rule="nonzero"/></g><g fill="#ffffff" fill-opacity="1"><g transform="translate(168.410822, 112.600746)"><g><path d="M 48.65625 -67.703125 C 49.46875 -67.828125 50.476562 -67.9375 51.6875 -68.03125 C 52.90625 -68.125 54.070312 -68.171875 55.1875 -68.171875 C 58.175781 -68.171875 60.382812 -67.96875 61.8125 -67.5625 C 63.25 -67.164062 64.25 -66.46875 64.8125 -65.46875 C 65.375 -64.46875 65.65625 -62.910156 65.65625 -60.796875 L 65.65625 -28.859375 C 65.65625 -8.617188 55.660156 1.5 35.671875 1.5 C 25.835938 1.5 18.414062 -0.988281 13.40625 -5.96875 C 8.394531 -10.957031 5.890625 -18.554688 5.890625 -28.765625 L 5.890625 -67.609375 C 6.441406 -67.734375 7.445312 -67.859375 8.90625 -67.984375 C 10.375 -68.109375 11.671875 -68.171875 12.796875 -68.171875 C 15.722656 -68.171875 17.882812 -67.96875 19.28125 -67.5625 C 20.6875 -67.164062 21.632812 -66.46875 22.125 -65.46875 C 22.625 -64.46875 22.875 -62.878906 22.875 -60.703125 L 22.875 -29.796875 C 22.875 -24.128906 23.929688 -19.941406 26.046875 -17.234375 C 28.171875 -14.523438 31.410156 -13.171875 35.765625 -13.171875 C 40.191406 -13.171875 43.445312 -14.507812 45.53125 -17.1875 C 47.613281 -19.863281 48.65625 -24.066406 48.65625 -29.796875 Z M 48.65625 -67.703125 "/></g></g></g><g fill="#ffffff" fill-opacity="1"><g transform="translate(239.935947, 112.600746)"><g><path d="M 66.40625 -0.9375 C 65.09375 -0.3125 63.378906 0.1875 61.265625 0.5625 C 59.148438 0.9375 57.15625 1.125 55.28125 1.125 C 53.539062 1.125 52.109375 0.921875 50.984375 0.515625 C 49.867188 0.109375 48.859375 -0.585938 47.953125 -1.578125 C 47.054688 -2.578125 46.078125 -4.046875 45.015625 -5.984375 L 36.046875 -22.140625 L 23.71875 -22.140625 L 23.71875 0.28125 C 23.21875 0.40625 22.28125 0.53125 20.90625 0.65625 C 19.539062 0.78125 18.363281 0.84375 17.375 0.84375 C 14.570312 0.84375 12.53125 0.640625 11.25 0.234375 C 9.976562 -0.171875 9.109375 -0.867188 8.640625 -1.859375 C 8.171875 -2.859375 7.9375 -4.445312 7.9375 -6.625 L 7.9375 -54.546875 L 1.3125 -54.546875 C 1.1875 -55.285156 1.09375 -56.140625 1.03125 -57.109375 C 0.96875 -58.078125 0.9375 -58.992188 0.9375 -59.859375 C 0.9375 -61.796875 1.164062 -63.289062 1.625 -64.34375 C 2.09375 -65.40625 2.84375 -66.148438 3.875 -66.578125 C 4.90625 -67.015625 6.351562 -67.234375 8.21875 -67.234375 L 33.53125 -67.234375 C 43.738281 -67.234375 51.222656 -65.332031 55.984375 -61.53125 C 60.742188 -57.738281 63.125 -52.015625 63.125 -44.359375 C 63.125 -39.753906 62.050781 -35.847656 59.90625 -32.640625 C 57.757812 -29.429688 54.785156 -27.175781 50.984375 -25.875 Z M 23.71875 -35.296875 L 33.90625 -35.296875 C 38.257812 -35.296875 41.476562 -36.023438 43.5625 -37.484375 C 45.65625 -38.953125 46.703125 -41.304688 46.703125 -44.546875 C 46.703125 -47.910156 45.65625 -50.367188 43.5625 -51.921875 C 41.476562 -53.484375 38.257812 -54.265625 33.90625 -54.265625 L 23.71875 -54.265625 Z M 23.71875 -35.296875 "/></g></g></g><g fill="#ffffff" fill-opacity="1"><g transform="translate(308.939952, 112.600746)"><g><path d="M 51.453125 -35.953125 C 54.128906 -35.265625 56.445312 -34.128906 58.40625 -32.546875 C 60.375 -30.960938 61.882812 -29.046875 62.9375 -26.796875 C 64 -24.554688 64.53125 -22.128906 64.53125 -19.515625 C 64.53125 -12.796875 62.148438 -7.863281 57.390625 -4.71875 C 52.628906 -1.570312 45.953125 0 37.359375 0 L 19.140625 0 C 16.023438 0 13.675781 -0.296875 12.09375 -0.890625 C 10.507812 -1.484375 9.421875 -2.492188 8.828125 -3.921875 C 8.234375 -5.359375 7.9375 -7.472656 7.9375 -10.265625 L 7.9375 -54.546875 L 1.3125 -54.546875 C 1.1875 -55.285156 1.09375 -56.140625 1.03125 -57.109375 C 0.96875 -58.078125 0.9375 -58.992188 0.9375 -59.859375 C 0.9375 -61.796875 1.164062 -63.289062 1.625 -64.34375 C 2.09375 -65.40625 2.84375 -66.148438 3.875 -66.578125 C 4.90625 -67.015625 6.351562 -67.234375 8.21875 -67.234375 L 36.234375 -67.234375 C 45.265625 -67.234375 51.769531 -65.738281 55.75 -62.75 C 59.738281 -59.769531 61.734375 -55.507812 61.734375 -49.96875 C 61.734375 -46.789062 60.859375 -43.957031 59.109375 -41.46875 C 57.367188 -38.976562 54.816406 -37.140625 51.453125 -35.953125 Z M 44.828125 -47.8125 C 44.828125 -50.300781 43.9375 -52.101562 42.15625 -53.21875 C 40.382812 -54.34375 37.695312 -54.90625 34.09375 -54.90625 L 24.09375 -54.90625 L 24.09375 -40.15625 L 34.1875 -40.15625 C 37.726562 -40.15625 40.382812 -40.804688 42.15625 -42.109375 C 43.9375 -43.421875 44.828125 -45.320312 44.828125 -47.8125 Z M 35.953125 -12.328125 C 39.503906 -12.328125 42.210938 -12.976562 44.078125 -14.28125 C 45.941406 -15.59375 46.875 -17.523438 46.875 -20.078125 C 46.875 -22.753906 45.910156 -24.742188 43.984375 -26.046875 C 42.054688 -27.359375 39.128906 -28.015625 35.203125 -28.015625 L 24.09375 -28.015625 L 24.09375 -12.328125 Z M 35.953125 -12.328125 "/></g></g></g><g fill="#ffffff" fill-opacity="1"><g transform="translate(375.889719, 112.600746)"><g><path d="M 71.34375 0 C 70.351562 0.1875 69.125 0.34375 67.65625 0.46875 C 66.195312 0.59375 64.9375 0.65625 63.875 0.65625 C 61.382812 0.65625 59.390625 0.46875 57.890625 0.09375 C 56.398438 -0.28125 55.125 -0.976562 54.0625 -2 C 53.007812 -3.03125 52.109375 -4.539062 51.359375 -6.53125 L 48.28125 -14.75 L 19.609375 -14.75 C 17.992188 -9.894531 16.6875 -4.976562 15.6875 0 C 14.695312 0.1875 13.46875 0.34375 12 0.46875 C 10.539062 0.59375 9.25 0.65625 8.125 0.65625 C 3.082031 0.65625 0.5625 -1.054688 0.5625 -4.484375 C 0.5625 -5.660156 0.851562 -7.335938 1.4375 -9.515625 C 2.03125 -11.703125 2.859375 -14.101562 3.921875 -16.71875 C 6.472656 -23.5 9.957031 -31.203125 14.375 -39.828125 C 18.800781 -48.453125 23.160156 -56.097656 27.453125 -62.765625 L 25.6875 -68.078125 C 26.613281 -68.265625 27.757812 -68.421875 29.125 -68.546875 C 30.5 -68.671875 31.75 -68.734375 32.875 -68.734375 C 35.738281 -68.734375 37.945312 -68.40625 39.5 -67.75 C 41.0625 -67.101562 42.367188 -65.96875 43.421875 -64.34375 C 44.484375 -62.726562 45.757812 -60.175781 47.25 -56.6875 Z M 43.328125 -27.734375 L 34.734375 -50.34375 C 30.878906 -42.925781 27.425781 -35.390625 24.375 -27.734375 Z M 43.328125 -27.734375 "/></g></g></g><g fill="#ffffff" fill-opacity="1"><g transform="translate(447.694979, 112.600746)"><g><path d="M 58.46875 -68.359375 C 61.082031 -68.359375 62.992188 -68.15625 64.203125 -67.75 C 65.421875 -67.34375 66.257812 -66.640625 66.71875 -65.640625 C 67.1875 -64.648438 67.421875 -63.097656 67.421875 -60.984375 L 67.421875 -8.78125 C 67.421875 -5.289062 66.285156 -2.765625 64.015625 -1.203125 C 61.742188 0.347656 58.894531 1.125 55.46875 1.125 C 53.039062 1.125 50.675781 0.90625 48.375 0.46875 C 44.632812 -6.195312 40.335938 -13.515625 35.484375 -21.484375 C 30.628906 -29.453125 26.148438 -36.457031 22.046875 -42.5 L 22.046875 0.5625 C 21.359375 0.75 20.515625 0.890625 19.515625 0.984375 C 18.523438 1.078125 17.5 1.125 16.4375 1.125 C 13.507812 1.125 11.34375 0.921875 9.9375 0.515625 C 8.539062 0.109375 7.59375 -0.585938 7.09375 -1.578125 C 6.59375 -2.578125 6.34375 -4.132812 6.34375 -6.25 L 6.34375 -61.453125 L 3.359375 -67.703125 C 4.234375 -67.953125 5.492188 -68.171875 7.140625 -68.359375 C 8.796875 -68.546875 10.460938 -68.640625 12.140625 -68.640625 C 14.628906 -68.640625 16.617188 -68.46875 18.109375 -68.125 C 19.609375 -67.78125 20.960938 -67.09375 22.171875 -66.0625 C 23.390625 -65.039062 24.71875 -63.503906 26.15625 -61.453125 C 29.695312 -56.535156 33.769531 -50.445312 38.375 -43.1875 C 42.988281 -35.9375 47.441406 -28.734375 51.734375 -21.578125 L 51.734375 -67.890625 C 53.609375 -68.203125 55.851562 -68.359375 58.46875 -68.359375 Z M 58.46875 -68.359375 "/></g></g></g></svg>