<svg xmlns="http://www.w3.org/2000/svg" xmlns:xlink="http://www.w3.org/1999/xlink" width="800" zoomAndPan="magnify" viewBox="0 0 600 137.249994" height="183" preserveAspectRatio="xMidYMid meet" version="1.0"><defs><g/><clipPath id="0d935b6e6c"><path d="M 1.628906 0 L 598.367188 0 L 598.367188 136.503906 L 1.628906 136.503906 Z M 1.628906 0 " clip-rule="nonzero"/></clipPath><clipPath id="5cfb43b006"><path d="M 27.5625 0 L 141.6875 0 L 141.6875 136.503906 L 27.5625 136.503906 Z M 27.5625 0 " clip-rule="nonzero"/></clipPath></defs><g clip-path="url(#0d935b6e6c)"><path fill="#ffffff" d="M 1.628906 0 L 598.371094 0 L 598.371094 136.503906 L 1.628906 136.503906 Z M 1.628906 0 " fill-opacity="1" fill-rule="nonzero"/><path fill="#ffffff" d="M 1.628906 0 L 598.371094 0 L 598.371094 136.503906 L 1.628906 136.503906 Z M 1.628906 0 " fill-opacity="1" fill-rule="nonzero"/></g><g fill="#ffffff" fill-opacity="1"><g transform="translate(161.789497, 121.49413)"><g><path d="M 58.25 -81.0625 C 59.21875 -81.207031 60.425781 -81.335938 61.875 -81.453125 C 63.332031 -81.566406 64.734375 -81.625 66.078125 -81.625 C 69.660156 -81.625 72.304688 -81.378906 74.015625 -80.890625 C 75.734375 -80.410156 76.925781 -79.570312 77.59375 -78.375 C 78.269531 -77.1875 78.609375 -75.328125 78.609375 -72.796875 L 78.609375 -34.546875 C 78.609375 -10.328125 66.644531 1.78125 42.71875 1.78125 C 30.9375 1.78125 22.046875 -1.195312 16.046875 -7.15625 C 10.046875 -13.113281 7.046875 -22.207031 7.046875 -34.4375 L 7.046875 -80.953125 C 7.710938 -81.097656 8.921875 -81.242188 10.671875 -81.390625 C 12.429688 -81.546875 13.976562 -81.625 15.3125 -81.625 C 18.820312 -81.625 21.414062 -81.378906 23.09375 -80.890625 C 24.769531 -80.410156 25.90625 -79.570312 26.5 -78.375 C 27.09375 -77.1875 27.390625 -75.285156 27.390625 -72.671875 L 27.390625 -35.671875 C 27.390625 -28.890625 28.65625 -23.875 31.1875 -20.625 C 33.726562 -17.382812 37.609375 -15.765625 42.828125 -15.765625 C 48.117188 -15.765625 52.007812 -17.363281 54.5 -20.5625 C 57 -23.769531 58.25 -28.804688 58.25 -35.671875 Z M 58.25 -81.0625 "/></g></g></g><g fill="#ffffff" fill-opacity="1"><g transform="translate(247.424891, 121.49413)"><g><path d="M 79.5 -1.125 C 77.9375 -0.375 75.882812 0.222656 73.34375 0.671875 C 70.8125 1.117188 68.425781 1.34375 66.1875 1.34375 C 64.101562 1.34375 62.390625 1.097656 61.046875 0.609375 C 59.703125 0.128906 58.488281 -0.703125 57.40625 -1.890625 C 56.332031 -3.085938 55.160156 -4.84375 53.890625 -7.15625 L 43.15625 -26.5 L 28.40625 -26.5 L 28.40625 0.328125 C 27.800781 0.484375 26.679688 0.632812 25.046875 0.78125 C 23.410156 0.925781 21.992188 1 20.796875 1 C 17.441406 1 15 0.753906 13.46875 0.265625 C 11.945312 -0.210938 10.90625 -1.046875 10.34375 -2.234375 C 9.78125 -3.429688 9.5 -5.332031 9.5 -7.9375 L 9.5 -65.296875 L 1.5625 -65.296875 C 1.414062 -66.191406 1.304688 -67.21875 1.234375 -68.375 C 1.160156 -69.53125 1.125 -70.628906 1.125 -71.671875 C 1.125 -73.984375 1.398438 -75.769531 1.953125 -77.03125 C 2.515625 -78.300781 3.410156 -79.195312 4.640625 -79.71875 C 5.867188 -80.238281 7.601562 -80.5 9.84375 -80.5 L 40.140625 -80.5 C 52.367188 -80.5 61.332031 -78.222656 67.03125 -73.671875 C 72.726562 -69.128906 75.578125 -62.273438 75.578125 -53.109375 C 75.578125 -47.597656 74.289062 -42.921875 71.71875 -39.078125 C 69.15625 -35.234375 65.597656 -32.53125 61.046875 -30.96875 Z M 28.40625 -42.265625 L 40.59375 -42.265625 C 45.8125 -42.265625 49.664062 -43.140625 52.15625 -44.890625 C 54.65625 -46.640625 55.90625 -49.453125 55.90625 -53.328125 C 55.90625 -57.359375 54.65625 -60.304688 52.15625 -62.171875 C 49.664062 -64.035156 45.8125 -64.96875 40.59375 -64.96875 L 28.40625 -64.96875 Z M 28.40625 -42.265625 "/></g></g></g><g fill="#ffffff" fill-opacity="1"><g transform="translate(330.041807, 121.49413)"><g><path d="M 61.609375 -43.046875 C 64.816406 -42.222656 67.59375 -40.859375 69.9375 -38.953125 C 72.28125 -37.054688 74.085938 -34.765625 75.359375 -32.078125 C 76.628906 -29.398438 77.265625 -26.5 77.265625 -23.375 C 77.265625 -15.320312 74.410156 -9.410156 68.703125 -5.640625 C 63.003906 -1.878906 55.007812 0 44.71875 0 L 22.921875 0 C 19.191406 0 16.375 -0.351562 14.46875 -1.0625 C 12.570312 -1.769531 11.269531 -2.976562 10.5625 -4.6875 C 9.851562 -6.40625 9.5 -8.941406 9.5 -12.296875 L 9.5 -65.296875 L 1.5625 -65.296875 C 1.414062 -66.191406 1.304688 -67.21875 1.234375 -68.375 C 1.160156 -69.53125 1.125 -70.628906 1.125 -71.671875 C 1.125 -73.984375 1.398438 -75.769531 1.953125 -77.03125 C 2.515625 -78.300781 3.410156 -79.195312 4.640625 -79.71875 C 5.867188 -80.238281 7.601562 -80.5 9.84375 -80.5 L 43.390625 -80.5 C 54.191406 -80.5 61.976562 -78.707031 66.75 -75.125 C 71.519531 -71.550781 73.90625 -66.445312 73.90625 -59.8125 C 73.90625 -56.019531 72.859375 -52.628906 70.765625 -49.640625 C 68.679688 -46.660156 65.628906 -44.460938 61.609375 -43.046875 Z M 53.671875 -57.25 C 53.671875 -60.226562 52.609375 -62.390625 50.484375 -63.734375 C 48.359375 -65.078125 45.132812 -65.75 40.8125 -65.75 L 28.84375 -65.75 L 28.84375 -48.078125 L 40.921875 -48.078125 C 45.171875 -48.078125 48.359375 -48.859375 50.484375 -50.421875 C 52.609375 -51.992188 53.671875 -54.269531 53.671875 -57.25 Z M 43.046875 -14.765625 C 47.296875 -14.765625 50.535156 -15.546875 52.765625 -17.109375 C 55.003906 -18.671875 56.125 -20.984375 56.125 -24.046875 C 56.125 -27.242188 54.96875 -29.625 52.65625 -31.1875 C 50.351562 -32.757812 46.851562 -33.546875 42.15625 -33.546875 L 28.84375 -33.546875 L 28.84375 -14.765625 Z M 43.046875 -14.765625 "/></g></g></g><g fill="#ffffff" fill-opacity="1"><g transform="translate(410.199229, 121.49413)"><g><path d="M 85.421875 0 C 84.234375 0.21875 82.757812 0.398438 81 0.546875 C 79.25 0.703125 77.742188 0.78125 76.484375 0.78125 C 73.492188 0.78125 71.101562 0.554688 69.3125 0.109375 C 67.53125 -0.335938 66.003906 -1.175781 64.734375 -2.40625 C 63.472656 -3.632812 62.394531 -5.441406 61.5 -7.828125 L 57.8125 -17.671875 L 23.484375 -17.671875 C 21.546875 -11.847656 19.976562 -5.957031 18.78125 0 C 17.59375 0.21875 16.117188 0.398438 14.359375 0.546875 C 12.609375 0.703125 11.066406 0.78125 9.734375 0.78125 C 3.691406 0.78125 0.671875 -1.265625 0.671875 -5.359375 C 0.671875 -6.773438 1.023438 -8.785156 1.734375 -11.390625 C 2.441406 -14.003906 3.429688 -16.878906 4.703125 -20.015625 C 7.753906 -28.140625 11.925781 -37.363281 17.21875 -47.6875 C 22.507812 -58.007812 27.726562 -67.160156 32.875 -75.140625 L 30.75 -81.515625 C 31.863281 -81.734375 33.238281 -81.914062 34.875 -82.0625 C 36.519531 -82.21875 38.015625 -82.296875 39.359375 -82.296875 C 42.785156 -82.296875 45.429688 -81.90625 47.296875 -81.125 C 49.160156 -80.34375 50.722656 -78.976562 51.984375 -77.03125 C 53.253906 -75.09375 54.785156 -72.039062 56.578125 -67.875 Z M 51.875 -33.203125 L 41.59375 -60.265625 C 36.96875 -51.398438 32.832031 -42.378906 29.1875 -33.203125 Z M 51.875 -33.203125 "/></g></g></g><g fill="#ffffff" fill-opacity="1"><g transform="translate(496.170023, 121.49413)"><g><path d="M 70 -81.84375 C 73.125 -81.84375 75.410156 -81.597656 76.859375 -81.109375 C 78.316406 -80.628906 79.328125 -79.789062 79.890625 -78.59375 C 80.453125 -77.40625 80.734375 -75.546875 80.734375 -73.015625 L 80.734375 -10.515625 C 80.734375 -6.335938 79.367188 -3.316406 76.640625 -1.453125 C 73.921875 0.410156 70.515625 1.34375 66.421875 1.34375 C 63.515625 1.34375 60.679688 1.082031 57.921875 0.5625 C 53.441406 -7.414062 48.296875 -16.175781 42.484375 -25.71875 C 36.671875 -35.257812 31.304688 -43.644531 26.390625 -50.875 L 26.390625 0.671875 C 25.566406 0.890625 24.554688 1.054688 23.359375 1.171875 C 22.171875 1.285156 20.941406 1.34375 19.671875 1.34375 C 16.171875 1.34375 13.582031 1.097656 11.90625 0.609375 C 10.226562 0.128906 9.09375 -0.703125 8.5 -1.890625 C 7.90625 -3.085938 7.609375 -4.953125 7.609375 -7.484375 L 7.609375 -73.578125 L 4.03125 -81.0625 C 5.070312 -81.363281 6.578125 -81.625 8.546875 -81.84375 C 10.523438 -82.070312 12.519531 -82.1875 14.53125 -82.1875 C 17.519531 -82.1875 19.90625 -81.976562 21.6875 -81.5625 C 23.476562 -81.15625 25.097656 -80.335938 26.546875 -79.109375 C 28.003906 -77.878906 29.59375 -76.035156 31.3125 -73.578125 C 35.5625 -67.679688 40.441406 -60.390625 45.953125 -51.703125 C 51.472656 -43.023438 56.800781 -34.398438 61.9375 -25.828125 L 61.9375 -81.28125 C 64.175781 -81.65625 66.863281 -81.84375 70 -81.84375 Z M 70 -81.84375 "/></g></g></g><g clip-path="url(#5cfb43b006)"><path fill="#ffffff" d="M 84.632812 0 C 53.234375 0 27.757812 25.453125 27.757812 56.875 C 27.757812 72.574219 34.121094 86.789062 44.421875 97.089844 L 84.632812 136.503906 L 124.855469 97.078125 C 135.15625 86.792969 141.519531 72.574219 141.507812 56.867188 C 141.507812 25.476562 116.046875 0 84.632812 0 Z M 116.820312 89.023438 L 84.632812 120.574219 L 52.386719 88.957031 C 43.863281 80.449219 39.128906 69.023438 39.128906 56.878906 C 39.128906 31.789062 59.542969 11.375 84.632812 11.375 C 96.785156 11.375 108.214844 16.113281 116.808594 24.707031 C 125.402344 33.304688 130.132812 44.726562 130.132812 56.867188 C 130.144531 69.023438 125.410156 80.441406 116.820312 89.023438 Z M 116.820312 89.023438 " fill-opacity="1" fill-rule="nonzero"/></g><path fill="#ffffff" d="M 84.632812 28.4375 L 56.195312 56.875 L 64.726562 56.875 L 64.726562 79.625 L 78.945312 79.625 L 78.945312 62.566406 L 90.320312 62.566406 L 90.320312 79.625 L 104.539062 79.625 L 104.539062 56.875 L 113.070312 56.875 Z M 84.632812 28.4375 " fill-opacity="1" fill-rule="nonzero"/></svg>