<svg xmlns="http://www.w3.org/2000/svg" xmlns:xlink="http://www.w3.org/1999/xlink" width="500" zoomAndPan="magnify" viewBox="0 0 375 374.999991" height="500" preserveAspectRatio="xMidYMid meet" version="1.0"><defs><clipPath id="4ce173d204"><path d="M 99 68.625 L 306 68.625 L 306 164 L 99 164 Z M 99 68.625 " clip-rule="nonzero"/></clipPath><clipPath id="ecb94c7990"><path d="M 0 253 L 375 253 L 375 290.625 L 0 290.625 Z M 0 253 " clip-rule="nonzero"/></clipPath></defs><path fill="#fde962" d="M 331.800781 282.128906 L 195.625 261.085938 L 211.378906 159.128906 L 287.792969 125.90625 L 347.554688 180.167969 L 331.800781 282.128906 " fill-opacity="1" fill-rule="nonzero"/><path fill="#fde962" d="M 362.679688 172.792969 L 292.386719 105.109375 L 199.355469 146.972656 C 199.355469 146.972656 192.089844 150.226562 193.664062 155.464844 C 196.007812 163.269531 202.867188 158.976562 202.867188 158.976562 L 289.019531 119.753906 L 355.71875 182.597656 C 355.71875 182.597656 360.425781 188.109375 364.996094 182.125 C 368.601562 177.398438 362.679688 172.792969 362.679688 172.792969 " fill-opacity="1" fill-rule="nonzero"/><path fill="#ffffff" d="M 291.210938 244.03125 L 243.507812 236.664062 L 252.808594 176.449219 L 300.515625 183.820312 L 291.210938 244.03125 " fill-opacity="1" fill-rule="nonzero"/><path fill="#fde962" d="M 288.203125 240.132812 L 247.550781 233.855469 L 255.820312 180.351562 L 296.472656 186.632812 L 288.203125 240.132812 " fill-opacity="1" fill-rule="nonzero"/><path fill="#ffffff" d="M 269.601562 238.085938 L 265.902344 237.515625 L 274.421875 182.394531 L 278.121094 182.964844 L 269.601562 238.085938 " fill-opacity="1" fill-rule="nonzero"/><path fill="#ffffff" d="M 249.382812 208.644531 L 249.957031 204.9375 L 294.640625 211.84375 L 294.066406 215.546875 L 249.382812 208.644531 " fill-opacity="1" fill-rule="nonzero"/><path fill="#dc9750" d="M 264.550781 279.117188 L 102.585938 254.089844 L 121.324219 132.828125 L 212.210938 93.3125 L 283.289062 157.855469 L 264.550781 279.117188 " fill-opacity="1" fill-rule="nonzero"/><g clip-path="url(#4ce173d204)"><path fill="#dc9750" d="M 301.277344 149.078125 L 217.671875 68.585938 L 107.027344 118.371094 C 107.027344 118.371094 98.386719 122.242188 100.253906 128.472656 C 103.046875 137.753906 111.199219 132.644531 111.199219 132.644531 L 213.664062 85.996094 L 292.996094 160.734375 C 292.996094 160.734375 298.597656 167.292969 304.027344 160.183594 C 308.320312 154.554688 301.277344 149.078125 301.277344 149.078125 " fill-opacity="1" fill-rule="nonzero"/></g><path fill="#ffffff" d="M 216.273438 233.808594 L 159.535156 225.042969 L 170.605469 153.429688 L 227.339844 162.195312 L 216.273438 233.808594 " fill-opacity="1" fill-rule="nonzero"/><path fill="#dc9750" d="M 212.699219 229.171875 L 164.347656 221.699219 L 174.175781 158.066406 L 222.53125 165.539062 L 212.699219 229.171875 " fill-opacity="1" fill-rule="nonzero"/><path fill="#ffffff" d="M 190.574219 226.738281 L 186.171875 226.054688 L 196.300781 160.5 L 200.707031 161.179688 L 190.574219 226.738281 " fill-opacity="1" fill-rule="nonzero"/><path fill="#ffffff" d="M 166.523438 191.714844 L 167.207031 187.3125 L 220.351562 195.523438 L 219.671875 199.929688 L 166.523438 191.714844 " fill-opacity="1" fill-rule="nonzero"/><path fill="#ea5e66" d="M 209.90625 273.75 L 46.019531 273.75 L 46.019531 151.046875 L 129.804688 98.121094 L 209.90625 151.046875 L 209.90625 273.75 " fill-opacity="1" fill-rule="nonzero"/><path fill="#ea5e66" d="M 226.34375 139.628906 L 131.425781 72.84375 L 29.683594 138.941406 C 29.683594 138.941406 21.730469 144.09375 24.53125 149.960938 C 28.707031 158.707031 35.984375 152.414062 35.984375 152.414062 L 130.128906 90.660156 L 219.9375 152.414062 C 219.9375 152.414062 226.472656 158.039062 230.757812 150.179688 C 234.136719 143.96875 226.34375 139.628906 226.34375 139.628906 " fill-opacity="1" fill-rule="nonzero"/><path fill="#ffffff" d="M 155.273438 236.347656 L 97.867188 236.347656 L 97.867188 163.882812 L 155.273438 163.882812 L 155.273438 236.347656 " fill-opacity="1" fill-rule="nonzero"/><path fill="#ea5e66" d="M 151.035156 232.308594 L 102.109375 232.308594 L 102.109375 167.921875 L 151.035156 167.921875 L 151.035156 232.308594 " fill-opacity="1" fill-rule="nonzero"/><path fill="#ffffff" d="M 128.796875 233.28125 L 124.34375 233.28125 L 124.34375 166.949219 L 128.796875 166.949219 L 128.796875 233.28125 " fill-opacity="1" fill-rule="nonzero"/><path fill="#ffffff" d="M 99.683594 202.34375 L 99.683594 197.882812 L 153.457031 197.882812 L 153.457031 202.34375 L 99.683594 202.34375 " fill-opacity="1" fill-rule="nonzero"/><g clip-path="url(#ecb94c7990)"><path fill="#ea5e66" d="M -16.265625 290.40625 C -16.265625 290.40625 161.003906 206.242188 391.160156 290.40625 C 391.160156 290.40625 241.449219 271.042969 -16.265625 290.40625 " fill-opacity="1" fill-rule="nonzero"/></g></svg>