<svg xmlns="http://www.w3.org/2000/svg" xmlns:xlink="http://www.w3.org/1999/xlink" width="800" zoomAndPan="magnify" viewBox="0 0 600 137.249994" height="183" preserveAspectRatio="xMidYMid meet" version="1.0"><defs><g/><clipPath id="d65ef72eb4"><path d="M 1.628906 2.34375 L 127.691406 2.34375 L 127.691406 136.503906 L 1.628906 136.503906 Z M 1.628906 2.34375 " clip-rule="nonzero"/></clipPath></defs><g fill="#ea5e66" fill-opacity="1"><g transform="translate(152.554647, 113.3436)"><g><path d="M 42.09375 1.703125 C 36.332031 1.703125 31.003906 0.265625 26.109375 -2.609375 C 21.222656 -5.492188 17.335938 -9.382812 14.453125 -14.28125 C 11.566406 -19.175781 10.125 -24.503906 10.125 -30.265625 L 10.125 -79.1875 L 74.078125 -79.1875 L 74.078125 -30.265625 C 74.078125 -24.503906 72.632812 -19.175781 69.75 -14.28125 C 66.863281 -9.382812 62.972656 -5.492188 58.078125 -2.609375 C 53.191406 0.265625 47.863281 1.703125 42.09375 1.703125 Z M 42.09375 1.703125 "/></g></g></g><g fill="#ea5e66" fill-opacity="1"><g transform="translate(236.739512, 113.3436)"><g><path d="M 74.875 0 L 14 0 L 14 -79.1875 L 44.828125 -79.1875 C 51.429688 -79.1875 56.816406 -78.015625 60.984375 -75.671875 C 65.078125 -73.390625 68.257812 -70.273438 70.53125 -66.328125 C 72.8125 -62.390625 73.953125 -58.03125 73.953125 -53.25 C 73.953125 -47.332031 72.128906 -42.039062 68.484375 -37.375 C 64.847656 -32.707031 60.265625 -29.617188 54.734375 -28.109375 Z M 21.15625 -74.984375 L 52.109375 -31.75 C 57.191406 -32.8125 61.398438 -35.351562 64.734375 -39.375 C 68.078125 -43.394531 69.75 -48.019531 69.75 -53.25 C 69.75 -57.414062 68.722656 -61.207031 66.671875 -64.625 C 64.628906 -68.039062 61.75 -70.660156 58.03125 -72.484375 C 54.6875 -74.148438 50.320312 -74.984375 44.9375 -74.984375 Z M 18.203125 -72.25 L 18.203125 -31.40625 L 47.453125 -31.40625 Z M 18.203125 -4.203125 L 66.90625 -4.203125 L 50.296875 -27.3125 L 46.765625 -27.1875 L 18.203125 -27.1875 Z M 18.203125 -4.203125 "/></g></g></g><g fill="#ea5e66" fill-opacity="1"><g transform="translate(320.924377, 113.3436)"><g><path d="M 47.671875 -79.1875 C 52.679688 -79.1875 56.664062 -78.429688 59.625 -76.921875 C 63.1875 -75.097656 65.929688 -72.59375 67.859375 -69.40625 C 69.796875 -66.21875 70.765625 -62.65625 70.765625 -58.71875 C 70.765625 -55 69.78125 -51.5625 67.8125 -48.40625 C 65.84375 -45.257812 63.148438 -42.78125 59.734375 -40.96875 C 63.828125 -39.519531 67.273438 -37.015625 70.078125 -33.453125 C 72.890625 -29.890625 74.296875 -25.867188 74.296875 -21.390625 C 74.296875 -17.441406 73.289062 -13.816406 71.28125 -10.515625 C 69.269531 -7.222656 66.597656 -4.628906 63.265625 -2.734375 C 61.597656 -1.816406 59.738281 -1.128906 57.6875 -0.671875 C 55.632812 -0.222656 52.90625 0 49.5 0 L 14.453125 0 L 14.453125 -79.1875 Z M 47.671875 -79.1875 "/></g></g></g><g fill="#ea5e66" fill-opacity="1"><g transform="translate(405.109243, 113.3436)"><g><path d="M 79.421875 0 L 4.78125 0 L 42.09375 -80.90625 Z M 11.375 -4.203125 L 72.8125 -4.203125 L 42.09375 -70.890625 Z M 11.375 -4.203125 "/></g></g></g><g fill="#ea5e66" fill-opacity="1"><g transform="translate(489.294108, 113.3436)"><g><path d="M 11.265625 -0.109375 L 11.265625 -79.3125 L 15.703125 -79.3125 L 71 -25.484375 L 71 -79.3125 L 75.203125 -79.3125 L 75.203125 -0.109375 Z M 11.265625 -0.109375 "/></g></g></g><g clip-path="url(#d65ef72eb4)"><path fill="#ea5e66" d="M 29.929688 18.675781 L 12.566406 28.703125 C 35.71875 42.070312 58.867188 55.433594 82.019531 68.800781 L 82.019531 136.492188 L 99.378906 136.492188 C 99.378906 110.585938 99.378906 84.679688 99.378906 58.769531 Z M 127.667969 42.441406 L 58.21875 2.34375 L 40.855469 12.371094 C 64.007812 25.734375 87.15625 39.101562 110.308594 52.46875 L 110.308594 136.492188 L 127.667969 136.492188 C 127.667969 105.144531 127.667969 73.792969 127.667969 42.441406 Z M 1.640625 136.492188 C 24.792969 136.492188 47.9375 136.492188 71.089844 136.492188 C 71.089844 116.03125 71.089844 95.566406 71.089844 75.105469 L 53.726562 65.085938 C 53.726562 83.101562 53.726562 101.117188 53.726562 119.136719 L 45.050781 119.136719 C 45.050781 99.445312 45.050781 79.761719 45.050781 60.074219 L 27.6875 50.042969 C 27.6875 73.074219 27.6875 96.101562 27.6875 119.128906 L 19.003906 119.128906 C 19.003906 94.429688 19.003906 69.730469 19.003906 45.03125 L 1.640625 35.007812 C 1.640625 68.835938 1.640625 102.664062 1.640625 136.492188 Z M 1.640625 136.492188 " fill-opacity="1" fill-rule="evenodd"/></g></svg>