<svg xmlns="http://www.w3.org/2000/svg" xmlns:xlink="http://www.w3.org/1999/xlink" width="800" zoomAndPan="magnify" viewBox="0 0 600 137.249994" height="183" preserveAspectRatio="xMidYMid meet" version="1.0"><defs><g/><clipPath id="e1f4ecfdc5"><path d="M 15.28125 2 L 151.785156 2 L 151.785156 136 L 15.28125 136 Z M 15.28125 2 " clip-rule="nonzero"/></clipPath></defs><g fill="#ea5e66" fill-opacity="1"><g transform="translate(171.924747, 105.093652)"><g><path d="M 40.96875 1.140625 C 28.90625 1.140625 20.195312 -1.113281 14.84375 -5.625 C 9.5 -10.144531 6.828125 -17.109375 6.828125 -26.515625 L 6.828125 -76.6875 C 6.828125 -78.65625 7.660156 -79.640625 9.328125 -79.640625 L 25.71875 -79.640625 C 27.382812 -79.640625 28.21875 -78.65625 28.21875 -76.6875 L 28.21875 -26.515625 C 28.21875 -19.765625 28.671875 -14.488281 29.578125 -10.6875 C 30.492188 -6.894531 31.898438 -4.238281 33.796875 -2.71875 C 35.691406 -1.207031 38.082031 -0.453125 40.96875 -0.453125 L 42.890625 -0.453125 C 47.140625 -0.453125 51.046875 -1.285156 54.609375 -2.953125 C 58.179688 -4.628906 61.046875 -7.363281 63.203125 -11.15625 C 65.367188 -14.945312 66.453125 -20.066406 66.453125 -26.515625 L 66.453125 -28.78125 L 52.5625 -46.984375 C 52.1875 -47.441406 51.957031 -47.84375 51.875 -48.1875 C 51.800781 -48.53125 51.765625 -48.890625 51.765625 -49.265625 L 51.765625 -78.84375 C 51.765625 -79.375 52.03125 -79.640625 52.5625 -79.640625 L 65.3125 -79.640625 C 66.976562 -79.640625 67.8125 -78.65625 67.8125 -76.6875 L 67.8125 -26.515625 C 67.8125 -17.109375 65.648438 -10.144531 61.328125 -5.625 C 57.003906 -1.113281 50.21875 1.140625 40.96875 1.140625 Z M 40.96875 1.140625 "/></g></g></g><g fill="#ea5e66" fill-opacity="1"><g transform="translate(246.554623, 105.093652)"><g><path d="M 81.46875 0 L 64.515625 0 C 62.765625 0 61.09375 -0.984375 59.5 -2.953125 L 34.140625 -36.40625 L 29.703125 -36.40625 L 29.703125 -2.953125 C 29.703125 -0.984375 28.863281 0 27.1875 0 L 12.75 0 C 11.070312 0 10.234375 -0.984375 10.234375 -2.953125 L 10.234375 -76.6875 C 10.234375 -78.65625 11.070312 -79.640625 12.75 -79.640625 L 40.96875 -79.640625 C 48.925781 -79.640625 55.238281 -78.976562 59.90625 -77.65625 C 64.570312 -76.332031 67.925781 -74.148438 69.96875 -71.109375 C 72.019531 -68.078125 73.046875 -63.984375 73.046875 -58.828125 C 73.046875 -51.691406 70.617188 -46.171875 65.765625 -42.265625 C 60.910156 -38.359375 52.644531 -36.40625 40.96875 -36.40625 L 36.296875 -36.40625 C 37.585938 -34.8125 39.066406 -33.40625 40.734375 -32.1875 C 42.398438 -30.976562 44.769531 -30.03125 47.84375 -29.34375 C 50.914062 -28.664062 55.222656 -28.328125 60.765625 -28.328125 C 61.367188 -28.328125 61.992188 -28.289062 62.640625 -28.21875 C 63.285156 -28.144531 63.796875 -27.84375 64.171875 -27.3125 L 82.953125 -2.953125 C 83.484375 -2.273438 83.613281 -1.613281 83.34375 -0.96875 C 83.082031 -0.320312 82.457031 0 81.46875 0 Z M 37.203125 -78.046875 L 29.703125 -78.046875 L 29.703125 -38 L 37.203125 -38 C 42.441406 -38 46.253906 -39.6875 48.640625 -43.0625 C 51.023438 -46.4375 52.21875 -51.691406 52.21875 -58.828125 C 52.21875 -65.953125 51.023438 -70.9375 48.640625 -73.78125 C 46.253906 -76.625 42.441406 -78.046875 37.203125 -78.046875 Z M 37.203125 -78.046875 "/></g></g></g><g fill="#ea5e66" fill-opacity="1"><g transform="translate(331.764654, 105.093652)"><g><path d="M 70.4375 -53.59375 L 45.0625 -39.59375 C 50.363281 -39.59375 55.289062 -38.910156 59.84375 -37.546875 C 64.394531 -36.179688 68.054688 -34.148438 70.828125 -31.453125 C 73.597656 -28.765625 74.984375 -25.375 74.984375 -21.28125 C 74.984375 -16.5 73.726562 -12.535156 71.21875 -9.390625 C 68.71875 -6.242188 64.679688 -3.890625 59.109375 -2.328125 C 53.535156 -0.773438 46.046875 0 36.640625 0 L 11.609375 0 C 9.941406 0 9.109375 -0.984375 9.109375 -2.953125 L 9.109375 -76.6875 C 9.109375 -78.65625 9.941406 -79.640625 11.609375 -79.640625 L 30.828125 -79.640625 C 40.847656 -79.640625 48.796875 -78.539062 54.671875 -76.34375 C 60.546875 -74.144531 64.734375 -71.109375 67.234375 -67.234375 C 69.742188 -63.367188 70.921875 -58.972656 70.765625 -54.046875 Z M 30.828125 -78.046875 L 29.703125 -78.046875 L 29.703125 -39.703125 L 34.359375 -39.703125 C 38.078125 -39.703125 41.128906 -40.476562 43.515625 -42.03125 C 45.910156 -43.59375 47.769531 -45.507812 49.09375 -47.78125 C 50.425781 -50.0625 51.359375 -52.320312 51.890625 -54.5625 C 52.421875 -56.800781 52.6875 -58.601562 52.6875 -59.96875 C 52.6875 -63.757812 52 -67 50.625 -69.6875 C 49.257812 -72.382812 47.003906 -74.453125 43.859375 -75.890625 C 40.710938 -77.328125 36.367188 -78.046875 30.828125 -78.046875 Z M 34.359375 -38.109375 L 29.703125 -38.109375 L 29.703125 -1.59375 L 34.359375 -1.59375 C 38.609375 -1.59375 42.15625 -2.484375 45 -4.265625 C 47.84375 -6.046875 49.984375 -8.320312 51.421875 -11.09375 C 52.867188 -13.863281 53.59375 -16.726562 53.59375 -19.6875 C 53.59375 -25.375 51.960938 -29.863281 48.703125 -33.15625 C 45.441406 -36.457031 40.660156 -38.109375 34.359375 -38.109375 Z M 34.359375 -38.109375 "/></g></g></g><g fill="#ea5e66" fill-opacity="1"><g transform="translate(410.717603, 105.093652)"><g><path d="M 21.046875 0 L 3.1875 0 C 2.28125 0 1.671875 -0.300781 1.359375 -0.90625 C 1.054688 -1.519531 1.054688 -2.203125 1.359375 -2.953125 L 34.359375 -76.6875 C 34.742188 -77.519531 35.296875 -78.21875 36.015625 -78.78125 C 36.734375 -79.351562 37.472656 -79.640625 38.234375 -79.640625 L 45.171875 -79.640625 C 46.160156 -79.640625 47.015625 -79.351562 47.734375 -78.78125 C 48.453125 -78.21875 48.960938 -77.519531 49.265625 -76.6875 L 82.265625 -2.953125 C 82.566406 -2.203125 82.566406 -1.519531 82.265625 -0.90625 C 81.960938 -0.300781 81.351562 0 80.4375 0 L 63.828125 0 C 62.847656 0 62.015625 -0.28125 61.328125 -0.84375 C 60.640625 -1.414062 60.109375 -2.117188 59.734375 -2.953125 L 51.3125 -21.734375 L 15.140625 -21.734375 L 23.546875 -2.953125 C 23.929688 -2.117188 23.914062 -1.414062 23.5 -0.84375 C 23.082031 -0.28125 22.265625 0 21.046875 0 Z M 50.625 -23.328125 L 31.40625 -66.453125 L 13.3125 -25.828125 L 14.453125 -23.328125 Z M 50.625 -23.328125 "/></g></g></g><g fill="#ea5e66" fill-opacity="1"><g transform="translate(494.33492, 105.093652)"><g><path d="M 6.59375 -79.640625 L 28.671875 -79.640625 C 30.109375 -79.640625 31.507812 -78.84375 32.875 -77.25 L 72.25 -29.46875 L 72.484375 -29.46875 L 72.484375 -57.796875 L 58.59375 -76 C 58.21875 -76.457031 57.988281 -76.859375 57.90625 -77.203125 C 57.832031 -77.546875 57.796875 -77.90625 57.796875 -78.28125 L 57.796875 -78.84375 C 57.796875 -79.375 58.0625 -79.640625 58.59375 -79.640625 L 71.5625 -79.640625 C 73.238281 -79.640625 74.078125 -78.65625 74.078125 -76.6875 L 74.078125 -2.953125 C 74.078125 -0.984375 73.238281 0 71.5625 0 L 67.25 0 C 65.800781 0 64.28125 -0.984375 62.6875 -2.953125 L 12.0625 -69.171875 L 12.0625 -26.171875 L 29.234375 -3.640625 C 29.765625 -2.878906 30.03125 -2.117188 30.03125 -1.359375 L 30.03125 -0.796875 C 30.03125 -0.265625 29.765625 0 29.234375 0 L 12.96875 0 C 11.300781 0 10.46875 -0.984375 10.46875 -2.953125 L 10.46875 -71.34375 L 6.375 -76.6875 C 6.070312 -77.144531 5.863281 -77.523438 5.75 -77.828125 C 5.632812 -78.128906 5.578125 -78.394531 5.578125 -78.625 L 5.578125 -78.84375 C 5.578125 -79.375 5.914062 -79.640625 6.59375 -79.640625 Z M 6.59375 -79.640625 "/></g></g></g><g clip-path="url(#e1f4ecfdc5)"><path fill="#ea5e66" d="M 87.320312 16.871094 C 85.027344 15.339844 82.039062 15.339844 79.746094 16.871094 L 31.96875 48.71875 C 30.070312 49.984375 28.929688 52.117188 28.929688 54.398438 L 28.929688 115.347656 C 28.929688 119.117188 31.988281 122.171875 35.757812 122.171875 L 56.230469 122.171875 L 56.230469 94.871094 C 56.230469 83.5625 65.398438 74.394531 76.707031 74.394531 L 90.359375 74.394531 C 101.667969 74.394531 110.832031 83.5625 110.832031 94.871094 L 110.832031 122.171875 L 131.308594 122.171875 C 135.078125 122.171875 138.132812 119.117188 138.132812 115.347656 L 138.132812 54.398438 C 138.132812 52.117188 136.992188 49.984375 135.09375 48.71875 Z M 72.175781 5.511719 C 79.054688 0.925781 88.011719 0.925781 94.890625 5.511719 L 142.667969 37.363281 C 148.363281 41.160156 151.785156 47.554688 151.785156 54.398438 L 151.785156 115.347656 C 151.785156 126.652344 142.617188 135.820312 131.308594 135.820312 L 104.007812 135.820312 C 100.238281 135.820312 97.183594 132.765625 97.183594 128.996094 L 97.183594 94.871094 C 97.183594 91.101562 94.128906 88.046875 90.359375 88.046875 L 76.707031 88.046875 C 72.9375 88.046875 69.882812 91.101562 69.882812 94.871094 L 69.882812 128.996094 C 69.882812 132.765625 66.828125 135.820312 63.058594 135.820312 L 35.757812 135.820312 C 24.449219 135.820312 15.28125 126.652344 15.28125 115.347656 L 15.28125 54.398438 C 15.28125 47.554688 18.703125 41.160156 24.398438 37.363281 Z M 72.175781 5.511719 " fill-opacity="1" fill-rule="evenodd"/></g></svg>