<svg xmlns="http://www.w3.org/2000/svg" xmlns:xlink="http://www.w3.org/1999/xlink" width="500" zoomAndPan="magnify" viewBox="0 0 375 374.999991" height="500" preserveAspectRatio="xMidYMid meet" version="1.0"><defs><clipPath id="4727c80d02"><path d="M 23.4375 0 L 337 0 L 337 375 L 23.4375 375 Z M 23.4375 0 " clip-rule="nonzero"/></clipPath></defs><g clip-path="url(#4727c80d02)"><path fill="#000000" d="M 180.328125 0 C 94.023438 0 23.984375 69.917969 23.984375 156.25 C 23.984375 199.375 41.480469 238.429688 69.792969 266.71875 L 180.328125 375 L 290.898438 266.695312 C 319.203125 238.433594 336.703125 199.378906 336.667969 156.21875 C 336.667969 69.992188 266.679688 0 180.328125 0 Z M 268.804688 244.566406 L 180.328125 331.238281 L 91.6875 244.382812 C 68.261719 221.011719 55.25 189.625 55.25 156.253906 C 55.25 87.328125 111.363281 31.25 180.328125 31.25 C 213.730469 31.25 245.152344 44.269531 268.773438 67.875 C 292.394531 91.496094 305.402344 122.867188 305.402344 156.226562 C 305.433594 189.625 292.421875 220.984375 268.804688 244.566406 Z M 268.804688 244.566406 " fill-opacity="1" fill-rule="nonzero"/></g><path fill="#000000" d="M 180.328125 78.125 L 102.15625 156.25 L 125.605469 156.25 L 125.605469 218.746094 L 164.695312 218.746094 L 164.695312 171.875 L 195.960938 171.875 L 195.960938 218.746094 L 235.050781 218.746094 L 235.050781 156.25 L 258.5 156.25 Z M 180.328125 78.125 " fill-opacity="1" fill-rule="nonzero"/><path stroke-linecap="butt" transform="matrix(0.75, 0, 0, 0.75, 127.499996, 185.999988)" fill="none" stroke-linejoin="miter" d="M 0.00000516333 2.000016 L 160.000016 2.000016 " stroke="#ffffff" stroke-width="4" stroke-opacity="1" stroke-miterlimit="4"/><path stroke-linecap="butt" transform="matrix(0.75, 0, 0, 0.75, -13.539382, 13.949683)" fill="none" stroke-linejoin="miter" d="M 0.000426601 1.999381 L 160.000437 1.999381 " stroke="#ffffff" stroke-width="4" stroke-opacity="1" stroke-miterlimit="4"/></svg>