<svg xmlns="http://www.w3.org/2000/svg" xmlns:xlink="http://www.w3.org/1999/xlink" width="500" zoomAndPan="magnify" viewBox="0 0 375 374.999991" height="500" preserveAspectRatio="xMidYMid meet" version="1.0"><defs><clipPath id="de98289e6f"><path d="M 194.855469 137.519531 L 227.945312 137.519531 L 227.945312 170.613281 L 194.855469 170.613281 Z M 194.855469 137.519531 " clip-rule="nonzero"/></clipPath><clipPath id="5728d53ed0"><path d="M 147.054688 137.519531 L 180.144531 137.519531 L 180.144531 170.613281 L 147.054688 170.613281 Z M 147.054688 137.519531 " clip-rule="nonzero"/></clipPath><clipPath id="b47512e097"><path d="M 194.855469 185.828125 L 227.945312 185.828125 L 227.945312 218.921875 L 194.855469 218.921875 Z M 194.855469 185.828125 " clip-rule="nonzero"/></clipPath><clipPath id="5b76c124b1"><path d="M 147.054688 185.828125 L 180.144531 185.828125 L 180.144531 218.921875 L 147.054688 218.921875 Z M 147.054688 185.828125 " clip-rule="nonzero"/></clipPath></defs><path fill="#000000" d="M 358.371094 163.558594 L 193.554688 3.238281 C 190.390625 0.164062 185.34375 0.164062 182.179688 3.238281 L 17.359375 163.558594 C 14.128906 166.699219 14.070312 171.859375 17.203125 175.085938 C 20.347656 178.324219 25.515625 178.378906 28.738281 175.246094 L 187.867188 20.457031 L 347.003906 175.246094 C 348.589844 176.78125 350.636719 177.554688 352.6875 177.554688 C 354.8125 177.554688 356.933594 176.734375 358.539062 175.085938 C 361.664062 171.859375 361.601562 166.699219 358.371094 163.558594 Z M 358.371094 163.558594 " fill-opacity="1" fill-rule="nonzero"/><path fill="#000000" d="M 322.496094 216.957031 C 317.996094 216.957031 314.339844 220.609375 314.339844 225.109375 L 314.339844 343.914062 C 314.339844 352.152344 307.640625 358.851562 299.398438 358.851562 L 76.332031 358.851562 C 68.089844 358.851562 61.390625 352.152344 61.390625 343.914062 L 61.390625 225.109375 C 61.390625 220.609375 57.734375 216.957031 53.234375 216.957031 C 48.730469 216.957031 45.078125 220.609375 45.078125 225.109375 L 45.078125 343.914062 C 45.078125 361.140625 59.09375 375.15625 76.332031 375.15625 L 299.394531 375.15625 C 316.628906 375.15625 330.648438 361.140625 330.648438 343.914062 L 330.648438 225.109375 C 330.65625 220.609375 327 216.957031 322.496094 216.957031 Z M 322.496094 216.957031 " fill-opacity="1" fill-rule="nonzero"/><g clip-path="url(#de98289e6f)"><path fill="#000000" d="M 194.855469 137.519531 L 227.945312 137.519531 L 227.945312 170.613281 L 194.855469 170.613281 Z M 194.855469 137.519531 " fill-opacity="1" fill-rule="nonzero"/></g><g clip-path="url(#5728d53ed0)"><path fill="#000000" d="M 147.054688 137.519531 L 180.144531 137.519531 L 180.144531 170.613281 L 147.054688 170.613281 Z M 147.054688 137.519531 " fill-opacity="1" fill-rule="nonzero"/></g><g clip-path="url(#b47512e097)"><path fill="#000000" d="M 194.855469 185.828125 L 227.945312 185.828125 L 227.945312 218.921875 L 194.855469 218.921875 Z M 194.855469 185.828125 " fill-opacity="1" fill-rule="nonzero"/></g><g clip-path="url(#5b76c124b1)"><path fill="#000000" d="M 147.054688 185.828125 L 180.144531 185.828125 L 180.144531 218.921875 L 147.054688 218.921875 Z M 147.054688 185.828125 " fill-opacity="1" fill-rule="nonzero"/></g></svg>